# xmcd
#
# Track frame offsets: 
#        150
#        21514
#        47682
#        73011
#        89936
#        134306
#        161444
#        173346
#        193978
#        222046
#        259565
#
# Disc length: 4155 seconds
#
# Revision: 0
# Processed by: cddbd v1.5.2PL0 Copyright (c) Steve Scherf et al.
# Submitted via: ExactAudioCopy v0.99pb5
#
DISCID=9c10390b
DTITLE=Wes Jeans and Lance Lopez - LIVE at Music City Texas
DYEAR=2009
DGENRE=Blues Rock
TTITLE0=Forest of the Pine
TTITLE1=Move On
TTITLE2=Dallas
TTITLE3=Locked Outa Love
TTITLE4=Five Long Years
TTITLE5=El Paso Sugar
TTITLE6=Nasty Dogs and Funky Kings
TTITLE7=Devil In Me
TTITLE8=Somebody
TTITLE9=Boomerang
TTITLE10=Champagne and Reefer
EXTD=
EXTT0=
EXTT1=
EXTT2=
EXTT3=
EXTT4=
EXTT5=
EXTT6=
EXTT7=
EXTT8=
EXTT9=
EXTT10=
PLAYORDER=
